# xmcd
#
# Track frame offsets:
#	150
#	39023
#	62707
#	85243
#	125957
#	167831
#	177618
#
# Disc length: 2913 seconds
#
# Revision: 1
# Processed by: cddbd v1.5.1PL2 Copyright (c) Steve Scherf et al.
# Submitted via: EasyCDDAExtractor 9.0.0.1
#
DISCID=5d0b5f07
DTITLE=Whitesnake - Mielparque Hiroshima 10-05-06 Disc 1
DYEAR=2006
DGENRE=Hard Rock
TTITLE0=Burn - Stormbringer - Burn 
TTITLE1=Give Me All Your Love 
TTITLE2=Love Ain't No Stranger 
TTITLE3=Walking In The Shadow Of The Blues - Lovehunter - Slow and Easy 
TTITLE4=Ain't No Love In The Heart Of The City
TTITLE5=Guitar Solo 
TTITLE6=Mistreated 
EXTD=
EXTT0=
EXTT1=
EXTT2=
EXTT3=
EXTT4=
EXTT5=
EXTT6=
PLAYORDER=
